<svg xmlns="http://www.w3.org/2000/svg" xmlns:xlink="http://www.w3.org/1999/xlink" version="1.1" id="Layer_1" x="0px" y="0px" width="100%" viewBox="0 0 480 482" enable-background="new 0 0 480 482" xml:space="preserve">



























<path fill="#4570AA" opacity="1.000000" stroke="none" d=" M153.595795,42.970879   C155.633469,42.905624 156.851624,41.887028 158.367981,40.785839   C159.202728,40.298416 159.812439,40.054337 160.708038,39.645382   C164.415527,38.332203 167.837128,37.183899 171.629761,36.034451   C176.097122,37.333645 178.378159,40.245758 180.287201,44.049084   C184.085632,51.616596 188.602158,58.815891 192.936661,66.092712   C201.519974,80.502449 209.656204,95.176910 218.964600,109.164238   C223.085526,115.356560 226.023071,122.271515 230.687790,128.231323   C233.961197,132.413513 232.269592,135.209595 227.081100,135.477859   C226.023010,135.532593 225.149765,135.880173 223.939713,136.564194   C220.907990,137.220337 218.361145,136.314331 215.377045,135.898926   C203.654129,131.515213 191.858994,128.887924 179.722122,126.031273   C177.169693,124.614113 174.558762,124.043587 172.656158,121.685928   C173.451187,118.074036 172.289520,115.455513 170.700623,112.511330   C163.832809,99.785561 155.854858,87.709427 149.049713,74.950745   C146.241028,69.684914 142.325821,65.063416 139.763504,59.620884   C138.878967,57.742073 137.055954,56.744019 135.110992,55.411709   C134.429550,53.285183 135.764038,52.362858 136.992874,51.591232   C142.187653,48.329250 147.251648,44.799320 153.595795,42.970879  z"/>

<path fill="#414B90" opacity="1.000000" stroke="none" d=" M44.646950,282.069214   C45.711662,281.279114 46.398983,280.523376 47.171501,279.467682   C48.213898,275.282684 52.058884,273.343994 53.827820,269.562683   C57.281628,267.191711 59.663631,268.226471 61.627792,271.155823   C63.022430,273.235718 64.163910,275.411224 64.678238,278.280396   C64.686790,279.455688 64.438911,280.177124 63.851330,281.170349   C53.844151,291.186737 46.535995,302.464233 42.007637,315.916748   C41.185379,317.827881 40.628773,319.446686 40.104736,321.477966   C38.407253,327.082672 37.256088,332.400513 37.055580,338.294403   C36.841969,339.473236 36.524776,340.221344 36.471882,341.437012   C36.113289,352.733765 37.185699,363.466980 40.058510,374.402374   C40.384422,376.566193 40.917786,378.262177 41.673164,380.272949   C44.005135,386.628662 46.397659,392.548492 50.295715,398.135620   C50.860317,399.034149 51.177471,399.665588 51.700340,400.584137   C63.441811,418.579346 79.701279,430.658997 98.726746,439.950470   C99.891510,440.454895 100.742928,440.807159 101.948090,441.208282   C104.556068,442.444946 106.851585,443.527985 109.656921,444.286926   C110.805161,444.871063 111.507614,445.551910 112.838043,445.800903   C120.609047,448.067047 128.040756,450.152954 136.154343,450.935059   C137.755188,451.334259 138.969513,451.704803 140.637054,451.679688   C141.778259,451.716156 142.530106,451.823792 143.651367,452.012695   C146.440048,452.818359 148.874054,452.912445 151.693695,452.164795   C153.065002,451.833160 154.088516,451.730316 155.501648,451.587158   C157.735291,451.311462 159.511963,450.674957 161.793823,450.593445   C169.624649,449.904785 176.753540,447.287598 184.649460,447.407471   C187.186630,451.172729 190.404266,454.434631 188.232666,459.552155   C187.151276,460.179077 186.342743,460.478546 185.205093,460.724731   C183.474579,461.223328 181.901840,460.705261 180.251831,461.541138   C176.456787,463.246216 172.645645,463.527222 168.525253,464.339905   C167.034073,464.985626 165.868698,465.004333 164.347290,464.974213   C163.557663,464.959625 163.117813,464.951904 162.362000,465.043518   C161.254425,465.126892 160.462830,465.110901 159.302414,465.249451   C145.388748,465.881744 131.956635,465.090424 118.386200,461.622131   C117.601700,461.243011 117.165512,461.103607 116.381439,460.933960   C113.971199,460.516449 111.899765,460.157532 109.430862,459.800476   C106.297150,457.675232 102.903152,457.158173 99.389519,455.995087   C95.750473,456.377289 93.352463,454.280121 90.357162,452.896790   C89.338074,452.236755 88.751900,451.519135 87.494987,451.282501   C76.384239,447.219818 67.183746,440.650604 58.888680,432.944794   C52.971786,427.448242 46.563042,422.229767 42.842712,414.408447   C42.459042,413.406281 42.026192,412.761780 41.297401,412.052979   C38.939583,408.408936 36.877697,404.829163 34.561417,401.030457   C34.080708,400.289093 33.854401,399.766724 33.370796,399.113861   C28.838503,388.967407 24.589441,378.977295 22.623714,368.135986   C21.048912,359.450653 20.678524,350.748169 20.757023,341.518707   C20.757736,340.591919 20.831886,340.124390 20.852369,339.303619   C22.651428,320.245453 29.251846,303.352722 40.325176,287.808228   C41.179901,286.841156 41.909859,286.185455 42.685875,285.236694   C42.091637,283.372803 42.880905,282.575958 44.646950,282.069214  z"/>
<path fill="#497EB5" opacity="1.000000" stroke="none" d=" M278.647125,27.991596   C279.386505,28.044830 279.793884,28.151051 280.517456,28.265444   C281.369812,28.543327 281.906036,28.813040 282.716370,29.219063   C283.452209,29.639952 283.921844,29.904961 284.747986,29.955664   C288.670471,30.124420 291.972717,31.602999 295.683105,32.927696   C302.648895,37.876041 305.638031,45.321190 309.551270,51.990211   C318.860382,67.855042 328.172363,83.716354 337.660492,99.475357   C341.934204,106.573639 345.386963,114.132729 349.697327,121.220657   C352.064056,125.112503 350.428070,128.553162 347.787842,132.078369   C337.300171,140.036865 325.523468,145.068054 314.488190,151.388046   C313.908142,151.720245 313.203857,151.652557 312.203186,151.389389   C311.881226,137.786606 303.060669,128.167526 297.118591,117.324554   C291.133026,106.402153 285.205933,95.430153 278.693176,84.819908   C272.088654,74.060081 266.269928,62.781895 259.206909,52.389004   C254.479156,45.432400 249.426254,38.701405 245.260483,31.355263   C244.041870,29.206314 243.331223,27.135317 244.748627,24.501005   C248.026382,24.305979 251.057831,24.386007 254.509644,24.629807   C255.731476,24.968063 256.546448,25.002487 257.667908,25.043547   C259.695221,25.153397 261.416901,25.248655 263.531250,25.519537   C264.372040,25.820438 264.825989,25.918318 265.634644,26.005583   C267.048859,26.104034 268.115143,26.181208 269.555511,26.405167   C270.423798,26.746376 270.917084,26.943846 271.717468,27.012424   C272.734833,27.108400 273.486908,27.190891 274.581177,27.438026   C275.421661,27.777079 275.918457,27.956808 276.709290,28.049023   C277.419800,28.064356 277.867493,28.054470 278.647125,27.991596  z"/>
<path fill="#4D85B9" opacity="1.000000" stroke="none" d=" M347.332153,132.253204   C351.137909,126.367638 348.518646,121.911232 345.548309,116.434967   C339.341003,104.990845 332.823486,93.724861 326.093567,82.613289   C321.323059,74.736794 317.465881,66.297600 311.729523,58.970505   C309.629791,56.288467 308.590485,52.800053 306.867065,49.794415   C303.663239,44.206947 300.456818,38.605988 296.036133,33.469589   C303.261353,34.565655 309.755341,38.209911 317.109680,40.480179   C318.481812,41.269772 319.506927,41.962883 320.844055,42.688400   C327.598938,44.359108 333.441589,47.177589 338.738678,51.815720   C339.402130,52.443951 339.825562,52.797256 340.528137,53.211567   C345.378693,53.869938 348.290161,57.335430 351.738922,59.777584   C366.315308,70.099503 378.814484,82.618011 389.923859,96.559227   C390.644562,97.463669 391.429932,98.336319 391.720551,99.855255   C391.951752,100.720108 392.201385,101.228325 392.703003,101.873634   C395.048004,103.798019 397.013702,105.682312 397.872192,108.770958   C398.153320,109.609360 398.407776,110.107231 398.801147,110.850937   C399.206909,113.702919 397.104095,114.030670 395.436707,114.449112   C380.203552,118.272064 365.971313,124.624878 351.931274,131.482224   C350.594452,132.135147 349.242981,132.835037 347.332153,132.253204  z"/>
<path fill="#4D85B9" opacity="1.000000" stroke="none" d=" M284.825256,29.745155   C284.342377,30.942982 283.696991,31.049780 283.043213,29.620800   C283.537659,29.415930 284.084808,29.476484 284.825256,29.745155  z"/>
<path fill="#4779B1" opacity="1.000000" stroke="none" d=" M244.585266,24.128981   C243.908447,30.281319 248.059875,34.992741 250.941391,38.763420   C260.016846,50.639294 266.870575,63.775093 274.783539,76.302551   C282.810486,89.010391 289.662079,102.367226 297.354828,115.230957   C302.705841,124.178864 307.446075,133.403656 312.546295,142.452087   C314.436218,145.805008 311.781952,147.709152 312.018005,150.690536   C308.542694,156.516800 303.070129,159.796478 297.161835,158.748398   C287.600128,157.052246 278.167969,154.198044 268.916748,150.037933   C268.314514,148.644897 268.593231,147.463638 269.491364,147.082855   C273.930786,145.200623 271.968658,142.657135 270.465729,139.989014   C259.783264,121.024620 248.693573,102.295464 238.136536,83.253632   C231.948547,72.092300 224.842667,61.393734 217.805939,50.695778   C213.272110,43.802990 209.043243,36.681881 205.193512,29.012178   C205.412384,27.896765 205.815994,27.296526 206.758255,26.650974   C207.808060,26.305410 208.543869,26.157362 209.656799,26.031609   C211.171295,25.967821 212.331406,26.112053 213.748077,25.569046   C215.422485,25.247763 216.787109,25.075066 218.566498,24.902920   C220.137695,24.992798 221.295425,25.107534 222.742889,24.582607   C227.072968,24.277523 231.088501,24.119728 235.567200,24.010754   C237.125290,24.003971 238.220764,24.002260 239.644958,24.040325   C241.374161,24.045670 242.774872,24.038841 244.585266,24.128981  z"/>
<path fill="#4675AE" opacity="1.000000" stroke="none" d=" M205.828537,27.725685   C206.180191,28.917009 206.025879,30.168043 206.578781,30.809496   C213.030029,38.294010 216.750748,47.487289 222.225296,55.593994   C230.661819,68.086754 238.454102,80.991249 245.715942,94.232872   C253.993759,109.327042 262.767334,124.151581 271.454010,139.018188   C274.991913,145.073059 275.107208,145.153854 269.125153,148.829559   C267.811768,150.150391 266.451782,150.019943 265.186554,149.644882   C256.139526,146.962952 246.843430,145.207718 237.489594,142.142273   C232.994415,139.712387 227.910034,139.906265 224.009521,136.550171   C224.354233,133.342300 226.493210,133.733917 228.143158,134.256775   C231.317734,135.262817 231.052032,133.330643 230.888840,131.414566   C230.834763,130.779678 230.640198,130.000717 230.218948,129.576538   C223.946228,123.260078 221.383484,114.591957 216.201523,107.564491   C212.874832,103.053040 210.056717,98.151054 207.195496,93.314751   C198.140228,78.008568 188.968765,62.764248 180.308258,47.236088   C178.052383,43.191338 176.507355,38.950230 172.056976,36.375435   C178.705215,32.545563 186.047302,31.020506 193.657364,29.112514   C194.875595,29.006763 195.725769,29.030544 196.783249,28.517433   C197.491455,28.255156 197.925095,28.145763 198.695557,28.043037   C199.563782,28.021534 200.086517,27.947437 200.836548,27.666321   C201.815857,27.396582 202.545776,27.216839 203.654785,27.052849   C204.616135,27.052025 205.163025,27.167452 205.828537,27.725685  z"/>
<path fill="#5D9CCB" opacity="1.000000" stroke="none" d=" M213.714081,25.322174   C213.350098,27.382397 211.955109,27.129305 210.244583,26.296062   C211.006897,25.217873 212.187973,25.218363 213.714081,25.322174  z"/>
<path fill="#5D9CCB" opacity="1.000000" stroke="none" d=" M222.736633,24.309929   C222.280533,26.428543 220.889465,26.152391 219.179596,25.167299   C218.981262,24.903473 219.016922,24.545984 219.067963,24.374516   C219.556061,24.161394 219.993118,24.119740 220.749420,23.990988   C221.517746,23.997440 221.966782,24.090990 222.736633,24.309929  z"/>
<path fill="#5D9CCB" opacity="1.000000" stroke="none" d=" M196.738251,28.287601   C196.677368,29.861486 195.781891,30.214497 194.236969,29.325138   C194.837036,28.804649 195.627853,28.507652 196.738251,28.287601  z"/>
<path fill="#5D9CCB" opacity="1.000000" stroke="none" d=" M206.219574,27.833082   C205.461868,27.808762 204.917755,27.668373 204.203766,27.298298   C204.836044,26.800285 205.638214,26.531961 206.756317,26.358547   C206.859222,26.874641 206.646194,27.295828 206.219574,27.833082  z"/>
<path fill="#5D9CCB" opacity="1.000000" stroke="none" d=" M200.816711,27.471138   C200.787643,28.459398 200.370819,29.103895 199.172485,28.253555   C199.537415,27.821789 200.042450,27.593870 200.816711,27.471138  z"/>
<path fill="#5D9CCB" opacity="1.000000" stroke="none" d=" M239.732819,23.868263   C238.951233,25.280836 237.733185,25.136370 236.241562,24.307152   C237.106491,23.217302 238.292297,23.385721 239.732819,23.868263  z"/>
<path fill="#5D9CCB" opacity="1.000000" stroke="none" d=" M257.710632,24.862286   C257.119934,26.151833 256.190430,26.227007 255.056915,25.029741   C255.743988,24.250963 256.590729,24.357676 257.710632,24.862286  z"/>
<path fill="#5D9CCB" opacity="1.000000" stroke="none" d=" M265.769501,25.831860   C265.409454,26.957317 264.784515,27.023499 264.013275,25.917370   C264.468079,25.675726 265.012268,25.656292 265.769501,25.831860  z"/>
<path fill="#5D9CCB" opacity="1.000000" stroke="none" d=" M271.778015,26.821611   C271.348999,27.952347 270.713257,27.967396 270.002502,26.791004   C270.477478,26.573740 271.025360,26.595526 271.778015,26.821611  z"/>
<path fill="#5D9CCB" opacity="1.000000" stroke="none" d=" M276.762939,27.878021   C276.336365,29.003471 275.704834,28.996746 275.000427,27.834160   C275.466827,27.629045 276.010315,27.655422 276.762939,27.878021  z"/>
<path fill="#4A5798" opacity="1.000000" stroke="none" d=" M188.334564,459.932861   C189.367661,455.301758 185.101913,452.204407 184.817886,447.623047   C185.910004,444.573761 188.474991,444.520844 191.065781,443.837952   C192.071762,443.667175 192.742416,443.574860 193.650436,443.102112   C199.498856,438.588654 206.430176,436.634766 212.100433,432.479614   C214.112778,431.004913 216.317429,429.792236 218.394165,427.804138   C219.466370,427.009155 220.345184,426.649048 221.680847,426.580261   C225.955750,428.306671 227.249756,432.321960 229.942352,435.577057   C229.441864,440.953156 224.993744,442.266418 221.050064,444.507019   C220.206284,444.735809 219.720200,444.915009 219.079178,445.306976   C212.479523,452.234802 204.284546,455.781494 195.279556,458.190338   C193.765533,458.389130 192.556107,458.810913 191.156570,459.492065   C190.214081,459.829620 189.461700,459.907867 188.334564,459.932861  z"/>
<path fill="#4A5798" opacity="1.000000" stroke="none" d=" M180.354950,461.783844   C180.744827,459.138214 182.683456,460.080780 184.618774,460.458801   C183.693863,461.773407 182.152283,461.614136 180.354950,461.783844  z"/>
<path fill="#CCD2DA" opacity="1.000000" stroke="none" d=" M164.204590,465.230652   C164.992798,464.030060 166.235901,464.234100 167.778656,464.345703   C167.443314,466.826996 165.899796,466.060059 164.204590,465.230652  z"/>
<path fill="#F6FCFC" opacity="1.000000" stroke="none" d=" M459.012939,159.297882   C448.192322,160.276108 437.368011,160.213455 426.242554,159.247925   C426.140564,155.905334 428.927490,155.169220 430.803986,153.763580   C439.938080,146.921570 447.035278,138.587738 450.528900,127.548607   C453.317291,118.737854 450.337280,113.816666 441.103699,112.306923   C430.884705,110.636055 420.591583,111.131416 410.324982,111.878258   C407.351959,112.094528 404.408722,112.827774 401.190308,111.375389   C401.125763,101.992920 401.125763,101.992874 410.292114,101.992897   C424.953918,101.992943 439.617401,102.113731 454.276398,101.910728   C458.078125,101.858086 459.074310,103.090286 459.036804,106.766518   C458.865204,123.592499 458.964355,140.421249 458.973267,157.745331   C458.998688,158.523163 459.008667,158.804962 459.012939,159.297882  z"/>
<path fill="#F8FEFD" opacity="1.000000" stroke="none" d=" M418.598938,280.946655   C432.012482,281.055023 445.055420,281.117859 458.550049,281.331360   C459.003143,281.763885 459.001007,282.045685 458.985199,282.537170   C458.968506,299.713928 458.852478,316.682159 459.036591,333.647125   C459.079620,337.609619 458.223419,339.170258 453.870209,339.102264   C437.738800,338.850250 421.600250,338.917175 405.466339,339.068909   C402.009705,339.101440 400.947479,338.057861 400.848419,334.560760   C400.730438,330.395111 402.376831,325.997986 399.383331,321.905273   C398.629852,321.391846 398.425690,320.937561 398.392029,320.035736   C398.700989,318.167328 399.322510,316.802246 400.133789,315.545532   C406.536133,305.627319 411.426392,294.948425 416.022827,284.118225   C416.536255,282.908569 416.967438,281.612091 418.598938,280.946655  z"/>
<path fill="#4A5798" opacity="1.000000" stroke="none" d=" M116.229706,461.085083   C116.692680,459.948059 117.311829,459.962311 117.964157,461.173523   C117.491486,461.372101 116.954132,461.333466 116.229706,461.085083  z"/>
<path fill="#4775AE" opacity="1.000000" stroke="none" d=" M385.080902,338.749329   C384.235352,339.447662 383.683563,339.937744 383.026306,340.688599   C376.661499,350.375946 368.816010,358.191559 358.938354,364.059692   C354.931946,349.944580 346.055389,338.678131 339.277527,326.355835   C328.780396,307.271759 316.564362,289.182465 306.238892,269.986267   C304.346649,266.468414 302.167938,263.019135 299.518829,260.086914   C293.278503,253.179672 290.687775,244.054688 284.919678,236.899521   C284.177460,235.978790 284.026611,234.758804 284.565125,233.229675   C286.889893,231.594940 288.590118,233.136047 290.765625,233.935410   C304.090576,242.084778 318.518463,247.560471 330.633606,257.115570   C345.757812,269.043915 361.182556,280.587433 376.589996,292.149292   C378.052612,293.246857 379.539948,294.312897 380.828552,296.121094   C390.204956,300.960083 393.509430,309.674500 396.734955,318.452789   C396.959290,319.063293 397.377411,319.595825 397.939789,320.442993   C395.830597,328.085083 390.495789,333.236511 385.080902,338.749329  z"/>
<path fill="#F8FEFD" opacity="1.000000" stroke="none" d=" M358.620087,363.541718   C367.717133,357.119324 374.946075,349.106842 382.629944,341.107788   C386.917938,340.966309 390.920685,341.120239 394.910187,340.954834   C397.851868,340.832916 399.051971,341.738220 399.029510,344.888062   C398.909515,361.710083 398.975830,378.533417 398.969604,395.356293   C398.968964,397.012909 399.223297,398.865143 396.274292,398.962036   C377.959534,399.420502 360.040955,398.056580 341.784119,400.003357   C341.239868,392.925934 341.097443,385.847687 340.917999,378.290283   C340.702423,376.666992 341.319550,375.837585 342.147552,375.275879   C347.651306,371.542236 352.618134,367.073761 358.620087,363.541718  z"/>
<path fill="#F4FAFB" opacity="1.000000" stroke="none" d=" M385.269409,338.968140   C389.021729,333.177917 393.256287,327.398285 397.565399,321.306396   C397.704437,320.425720 398.006866,320.047699 398.785217,320.170044   C399.024506,320.770782 399.020355,321.061523 398.998291,321.565063   C398.983734,326.367737 398.898987,330.959625 399.012238,335.546570   C399.074158,338.054596 398.158875,339.139679 395.585449,339.033966   C392.312286,338.899536 389.029999,338.986969 385.269409,338.968140  z"/>
<path fill="#89D1EF" opacity="1.000000" stroke="none" d=" M380.305542,297.185577   C373.653259,290.818176 366.190430,286.112549 359.257050,280.728638   C348.898193,272.684784 338.456390,264.747742 328.056885,256.756165   C316.772919,248.084961 303.407288,243.028061 291.175964,235.365417   C284.150787,227.619202 280.638947,218.172348 275.961578,209.448242   C273.005920,203.935349 269.077301,198.885010 267.448181,192.360718   C271.114105,187.577286 277.136932,187.255081 281.600159,183.601059   C292.725677,178.919327 303.502716,174.334351 315.016296,168.868240   C307.857880,165.730453 301.153656,164.347107 294.121338,162.777176   C289.323395,160.167267 283.955200,160.564255 279.114288,158.021881   C266.607941,154.499496 254.575485,150.743790 242.427475,147.383377   C240.385452,146.818512 238.162506,146.512161 236.436264,144.394958   C236.013748,143.166183 236.083420,142.337814 236.734314,141.211945   C247.403839,143.629318 257.789093,146.368027 268.570190,149.137054   C278.429382,152.078278 287.886963,155.008209 297.359711,157.888123   C300.081665,158.715668 302.125305,156.924805 304.281128,155.794266   C306.770538,154.488785 309.165161,153.002533 311.810303,151.332489   C320.918121,146.326157 329.828522,141.604324 338.707672,136.824417   C341.315063,135.420792 343.833801,133.852493 346.699188,132.199371   C355.770355,128.126862 364.417877,123.917267 373.335052,120.389412   C381.602966,117.118431 390.159058,114.575912 398.764160,111.404701   C399.374176,111.098289 399.808319,111.099808 400.566162,111.106941   C411.501862,110.150841 422.132233,109.561722 432.786560,110.013176   C436.426544,110.167412 440.101166,110.477684 443.667999,111.182259   C451.162567,112.662697 454.607941,118.719368 452.419586,126.234985   C448.235687,140.603943 438.769287,150.715469 426.136108,158.677551   C425.032654,159.788635 424.123230,160.625183 422.904236,162.041794   C411.407745,169.303818 399.864105,175.366241 388.446655,182.361511   C381.904877,185.838654 375.369293,188.506439 368.707581,191.768860   C352.515076,198.887421 336.970551,206.545700 320.773621,213.631775   C316.427216,214.838364 312.883453,217.097687 310.916138,217.752258   C312.923798,216.946075 316.932129,215.603470 321.086365,213.630463   C329.317902,209.483414 337.945007,207.395248 346.108582,204.090927   C349.414703,202.752731 351.644989,203.416046 353.253723,206.989716   C365.474945,234.138687 377.648163,261.309265 389.784729,288.496063   C390.862610,290.910553 393.310150,293.773407 390.231476,296.155182   C387.479370,298.284332 384.164001,299.824585 380.305542,297.185577  z"/>
<path fill="#F7FEFD" opacity="1.000000" stroke="none" d=" M392.167358,100.142494   C385.434143,93.554642 380.002533,86.163818 373.448334,79.744820   C363.538483,70.039368 352.783264,61.421051 341.008850,53.536446   C341.478119,42.002449 341.478119,42.002335 353.119995,42.002476   C366.927002,42.002644 380.735321,42.106052 394.540161,41.932323   C398.079590,41.887783 399.074707,43.077667 399.041687,46.514275   C398.891418,62.149689 398.777893,77.791328 399.090729,93.421936   C399.191589,98.462273 398.029602,100.988510 392.167358,100.142494  z"/>



<path fill="#456FA9" opacity="1.000000" stroke="none" d=" M358.984131,363.161224   C353.594604,368.796173 347.276215,372.835754 341.070068,377.537964   C339.957306,378.282013 339.033630,378.752869 337.938171,379.487854   C333.736053,384.473114 328.341644,386.840820 322.230164,388.404144   C319.596497,373.677673 310.160339,362.552368 303.150452,350.350098   C295.609680,337.223694 287.627991,324.321014 280.283997,311.087280   C269.865356,292.313141 259.177002,273.722321 247.690857,255.582184   C244.585373,250.677673 242.381866,245.211670 238.483734,240.374054   C238.459320,239.746506 238.499344,239.493942 238.731567,238.906799   C242.518036,235.699539 247.308838,236.382721 251.568329,234.281693   C254.542740,232.981491 257.411224,232.889130 260.498199,232.056549   C265.538849,230.395966 270.427460,229.705643 275.529785,228.235077   C279.805511,227.468323 282.628265,229.286987 285.033569,232.478912   C284.858673,234.462326 285.473907,235.703781 286.363159,237.017380   C293.023743,246.856598 298.711365,257.294128 305.730286,266.953949   C311.025299,274.241272 314.740540,282.678162 319.530029,290.406219   C326.488892,301.634766 333.053680,313.108734 339.721954,324.515808   C345.742920,334.815643 351.734314,345.133850 357.602753,355.520782   C358.823273,357.681030 359.295166,360.206573 358.984131,363.161224  z"/>
<path fill="#4368A5" opacity="1.000000" stroke="none" d=" M238.670441,239.765869   C245.895218,247.489120 250.230423,256.697083 255.425018,265.248901   C268.220703,286.314331 280.571228,307.670715 292.425568,329.280457   C300.782043,344.513824 310.621918,358.862457 318.495453,374.384735   C320.677887,378.687286 324.089752,382.187500 322.065552,387.866394   C320.704834,391.845245 316.992920,392.132965 314.245178,393.702759   C310.662781,395.749390 306.801849,397.251831 302.311218,397.937805   C299.992218,398.553406 298.044403,399.170868 295.707764,399.805084   C293.546143,400.840729 293.204987,399.290741 293.065613,398.297577   C292.173279,391.938293 288.317719,386.963013 285.199768,381.726532   C265.455780,348.566986 246.512100,314.948425 227.275970,281.497070   C222.639862,273.434937 217.601669,265.590027 213.121307,257.429321   C211.408386,254.309341 208.201111,252.480057 206.593826,248.955948   C208.859222,245.706619 212.450424,245.931747 215.436539,244.781921   C217.719864,243.902695 220.295609,243.877640 222.789124,242.319351   C228.251114,241.466400 233.040405,239.027481 238.670441,239.765869  z"/>
<path fill="#4263A1" opacity="1.000000" stroke="none" d=" M206.694427,248.687973   C211.539932,252.266754 214.232681,256.942352 216.977493,261.744019   C227.095886,279.444580 237.774918,296.828644 247.703186,314.632843   C259.582977,335.936615 272.247864,356.773743 284.438202,377.890839   C287.092224,382.488373 289.532806,387.221863 292.416748,391.668915   C294.053680,394.193054 293.393250,397.155487 295.012878,399.731323   C295.318878,399.821808 295.439087,400.188629 295.473999,400.378448   C291.509644,403.870667 286.529541,404.176117 281.356232,405.005127   C280.436401,404.990601 279.903442,405.044281 279.155975,405.265076   C276.503113,408.627777 272.921204,407.790924 269.268066,407.962067   C268.067352,407.502533 267.293518,406.873871 267.448730,406.023102   C268.394562,400.838989 265.121613,397.278351 262.809418,393.292603   C249.805710,370.876984 236.895111,348.401337 223.574539,326.178131   C214.695236,311.364532 206.700851,296.005280 196.804626,281.803436   C195.942993,280.566925 195.198151,279.263367 195.570984,277.319763   C195.848679,276.894165 195.988144,276.712860 196.118866,276.718964   C202.610870,277.021423 202.612747,277.022186 199.546478,270.864166   C198.004349,267.767059 196.276932,264.746948 194.957916,261.557983   C193.419098,257.837646 191.118256,257.290741 187.501129,258.559448   C184.494385,259.614075 181.536530,261.621674 177.786163,260.096497   C177.185593,259.125366 177.131500,258.390381 177.471802,257.281281   C181.914566,253.840683 187.372299,253.899612 192.292908,251.438889   C193.358002,251.055893 194.094833,250.922089 195.197800,250.757294   C196.810715,250.694519 197.888428,250.214325 199.208069,249.305740   C201.780807,248.434738 203.992264,247.493179 206.694427,248.687973  z"/>
<path fill="#F7FEFD" opacity="1.000000" stroke="none" d=" M267.699158,406.869507   C271.361481,406.599121 274.721710,406.047577 278.511719,405.464111   C278.962524,421.709412 278.877655,437.988007 279.084198,454.262909   C279.131805,458.012207 277.980713,459.079224 274.276123,459.040192   C257.170013,458.859924 240.061020,458.953552 222.486725,458.929016   C219.981049,454.590637 221.590546,449.967255 220.797318,445.046265   C223.674835,441.899933 226.657318,439.243286 229.756851,436.278992   C233.517502,430.699890 237.868134,425.978363 241.649628,420.795563   C243.797180,417.852203 246.086731,415.099243 247.688431,411.378845   C253.680679,406.418823 260.652435,406.999054 267.699158,406.869507  z"/>
<path fill="#F4FAFB" opacity="1.000000" stroke="none" d=" M302.228699,398.247833   C308.501099,394.878967 315.062195,391.822052 321.854218,388.520691   C327.377991,386.026550 332.245422,383.004700 337.442444,379.872528   C340.326721,385.445129 338.581421,391.417999 338.848602,397.257141   C338.915924,398.728424 337.513763,398.989716 336.297546,398.966400   C325.038391,398.750641 313.766968,399.542145 302.228699,398.247833  z"/>
<path fill="#4A7EB4" opacity="1.000000" stroke="none" d=" M319.942505,213.361908   C335.769775,205.723480 351.538330,198.445312 367.645203,191.045639   C370.826599,193.822113 372.120636,197.695541 374.303741,200.982376   C381.742981,212.182693 387.302094,224.491791 395.062347,235.510208   C398.784119,240.794556 400.408936,247.330231 404.193817,252.638550   C409.913422,260.660248 414.202881,269.463165 418.632568,278.612305   C418.825134,279.400940 418.870758,279.854431 418.942993,280.650024   C413.119354,294.278839 406.919952,307.388489 399.167206,320.132019   C398.712189,320.568787 398.401215,320.657562 397.865112,320.870239   C396.361877,320.850891 395.254791,320.184204 395.179016,318.939972   C394.852600,313.583710 390.807312,309.806824 389.396698,304.915344   C388.704407,302.514771 386.668304,301.535309 384.481140,300.483673   C382.997742,299.770477 380.933899,299.506409 380.073761,297.267975   C383.289795,298.575958 386.164764,296.698700 389.095001,295.827576   C391.532013,295.103088 390.626343,293.389679 389.915710,291.807129   C382.769745,275.893280 375.648743,259.968262 368.504944,244.053482   C362.993744,231.775787 357.370789,219.546982 352.008270,207.204865   C350.877747,204.602936 349.706085,204.111755 347.167847,205.049805   C338.757996,208.157776 330.286316,211.098541 321.462616,214.161407   C320.569214,214.335770 320.168152,214.170044 319.942505,213.361908  z"/>
<path fill="#4A80B6" opacity="1.000000" stroke="none" d=" M418.972290,278.925720   C417.787537,278.938690 416.562775,279.093384 416.228027,277.916321   C413.219086,267.336456 405.904449,259.104797 400.940582,249.609634   C392.446075,233.360947 382.544891,217.952286 373.465485,202.058060   C371.527557,198.665604 369.817261,195.143112 367.992798,191.302338   C374.304413,187.928070 380.625305,184.932022 387.295410,181.882996   C392.437195,180.536469 394.707458,184.050659 396.692596,187.130539   C400.822113,193.537369 404.062103,200.525742 408.218750,206.886765   C415.185791,217.548584 420.212830,229.391663 428.431244,239.704010   C429.142212,241.198059 429.199310,242.420074 428.910522,244.017487   C428.390900,245.424362 427.718567,246.420395 428.016327,248.027130   C426.812988,258.816956 423.962280,268.822815 419.924500,278.774902   C419.552155,278.930267 419.165070,278.903961 418.972290,278.925720  z"/>
<path fill="#F7FEFD" opacity="1.000000" stroke="none" d=" M420.056213,278.952454   C422.118835,268.574646 425.703064,258.465149 427.032043,247.408508   C427.016174,246.535538 427.092468,246.082840 427.329041,245.312897   C427.681244,243.612030 427.914551,242.235229 428.100708,240.438629   C426.907898,234.091873 428.211609,228.360580 429.765869,222.320099   C438.056610,222.000916 446.026428,222.076538 453.991791,221.921844   C456.942078,221.864532 458.108704,222.762985 458.086792,225.874634   C457.971130,242.308243 457.967285,258.743591 458.088959,275.177094   C458.112610,278.369751 456.791534,279.083069 453.926331,279.052307   C442.805298,278.932953 431.682434,278.985870 420.056213,278.952454  z"/>
<path fill="#F7FEFD" opacity="1.000000" stroke="none" d=" M422.925598,162.082947   C433.180481,162.041016 443.306763,162.116257 453.428223,161.929581   C456.732849,161.868637 458.149109,162.649475 458.109100,166.318939   C457.933655,182.417496 457.941956,198.519989 458.104675,214.618805   C458.140717,218.182358 456.899597,219.186630 453.499237,219.089111   C446.035858,218.875122 438.562775,218.999863 430.636353,218.974319   C428.787872,217.974472 428.574188,216.442337 428.595367,214.966492   C428.837677,198.093796 425.941315,181.636658 422.130829,165.294754   C421.941437,164.482559 421.984314,163.647324 422.357056,162.420563   C422.546417,162.013855 422.795166,162.098267 422.925598,162.082947  z"/>
<path fill="#4D86BA" opacity="1.000000" stroke="none" d=" M422.210083,162.048401   C427.630157,180.343872 430.340942,198.990616 430.101746,218.501877   C430.107727,219.726761 430.036469,220.491180 430.026855,221.636139   C429.563995,227.800034 429.039398,233.583405 428.284180,239.692795   C423.770721,237.490768 421.415070,232.912659 419.453125,229.042191   C412.235840,214.803925 402.967834,201.785385 395.691193,187.610870   C394.258423,184.819992 391.690430,182.763031 388.031464,181.905060   C390.343933,178.130005 394.804962,177.172958 398.511749,175.164978   C406.362701,170.912079 413.581940,165.532318 422.210083,162.048401  z"/>
<path fill="#F6FCFC" opacity="1.000000" stroke="none" d=" M42.618347,414.358307   C54.947063,429.193939 69.185165,441.686859 87.073853,450.191162   C88.257347,450.303864 88.805115,450.952362 89.762253,451.461823   C92.837570,452.923431 95.654846,454.233917 98.743225,455.759521   C99.234314,458.487213 97.823624,458.993286 95.642830,458.986938   C78.888794,458.938019 62.134521,458.939789 45.380447,458.979340   C43.190895,458.984497 41.945843,458.389404 41.974812,455.917358   C42.135948,442.167297 42.228664,428.416412 42.618347,414.358307  z"/>


<path fill="#404F94" opacity="1.000000" stroke="none" d=" M64.257584,279.046448   C62.820065,276.153259 61.765396,273.477600 60.101170,271.018616   C58.641136,268.861328 57.162136,268.796051 54.854958,269.928284   C52.960487,269.667786 52.469658,268.341827 52.128330,267.091736   C48.309040,253.103577 45.006226,239.030441 45.635784,224.364441   C45.657345,223.862244 45.824696,223.386917 46.130882,222.495255   C46.363674,221.276733 46.429943,220.471176 46.329880,219.290344   C43.641289,212.119659 45.722977,205.366425 46.602188,198.282471   C50.016052,198.623444 51.534370,201.405670 52.951122,203.639801   C59.325886,213.692474 66.005859,223.539108 71.342422,234.275421   C74.627701,240.884903 79.141327,246.939774 82.695663,253.496368   C84.349068,256.546356 85.226044,259.603058 84.103439,263.379944   C83.013428,266.906952 79.947235,267.913879 77.677338,269.747498   C74.207458,272.550476 70.395172,274.919128 66.880508,278.260162   C65.989159,278.940125 65.320557,279.230927 64.257584,279.046448  z"/>
<path fill="#F4FAFB" opacity="1.000000" stroke="none" d=" M45.913193,222.059387   C47.423607,238.061432 49.390511,253.900330 54.349018,269.634308   C53.466927,273.833893 49.967724,275.812866 47.534218,278.991516   C45.799652,279.123596 44.342609,279.079437 42.450272,279.014343   C42.004646,261.419037 42.014511,243.844589 41.961555,226.270309   C41.953896,223.727158 41.945606,221.436752 45.913193,222.059387  z"/>

<path fill="#4469A6" opacity="1.000000" stroke="none" d=" M134.009918,54.576958   C137.940445,54.854225 139.865219,57.087929 141.553604,60.010544   C152.085999,78.242226 162.648193,96.458206 173.432358,114.541130   C174.911285,117.020996 175.045944,118.670395 173.061279,120.983368   C170.736038,122.848228 168.477203,121.941322 166.244965,121.481239   C156.377487,119.447433 146.775742,116.346649 136.544556,114.080574   C128.069687,111.102806 119.435860,110.339859 111.074814,107.231857   C110.547546,106.546844 110.262833,106.063477 110.356895,105.597282   C110.848091,103.162842 112.897339,100.858467 110.760399,98.242622   C107.002724,93.642822 105.620384,87.079475 99.174652,84.250992   C98.950905,83.984421 98.960945,83.522430 99.005417,83.295670   C100.303223,81.925438 101.556564,80.781982 102.925537,79.339424   C104.845146,74.192780 109.462372,72.034172 113.001823,68.931992   C119.333122,63.382870 125.595169,57.620537 134.009918,54.576958  z"/>

<path fill="#F1F9FA" opacity="1.000000" stroke="none" d=" M195.274918,458.260895   C203.011536,454.435120 210.975815,450.765533 218.573425,445.626160   C219.339005,458.973572 219.338760,459.018188 205.863358,458.942657   C202.436264,458.923462 198.973297,459.455627 195.274918,458.260895  z"/>
<path fill="#425F9F" opacity="1.000000" stroke="none" d=" M98.648140,84.122993   C101.658180,83.726959 103.658615,84.576340 105.105804,87.099731   C107.228241,90.800537 109.562996,94.391586 111.995750,97.898659   C113.997780,100.784813 113.735977,103.182709 111.038559,105.741776   C105.592087,108.515709 99.753143,109.821419 94.470673,112.554573   C93.330528,113.144485 91.944374,113.291199 90.573502,114.840477   C97.387253,119.472198 105.085976,122.164162 111.654053,127.319817   C124.524467,144.800980 133.886200,163.985947 144.877289,182.184692   C146.854370,185.458298 149.111603,188.540298 150.958389,191.915665   C153.011307,195.667801 153.347076,199.089142 150.613342,202.929504   C145.485855,205.372971 144.824005,208.848694 146.617477,213.643845   C147.644043,216.388535 148.710724,219.277435 148.528641,222.690521   C145.789459,225.921066 143.263962,223.712143 140.811478,222.771271   C136.867249,221.258133 133.169022,218.692963 128.244858,220.409027   C126.706299,220.131165 126.014084,219.154175 126.343491,218.209183   C128.183334,212.931274 124.469925,209.406113 122.393669,205.432480   C116.165329,193.512329 108.879402,182.184998 102.003510,170.650238   C93.516289,156.412369 85.284973,142.034714 77.027000,127.669273   C75.584747,125.160355 73.751938,123.586342 70.612701,123.104584   C73.676277,115.569847 78.540131,109.297661 82.892426,102.336929   C82.945236,101.346367 83.213333,100.821533 83.986252,100.285072   C88.961662,94.866585 93.653519,89.564072 98.648140,84.122993  z"/>

<path fill="#405396" opacity="1.000000" stroke="none" d=" M47.721008,197.683197   C47.990360,185.442947 50.823803,174.089798 53.812347,162.379745   C54.052574,161.501083 54.311253,161.010605 54.525970,160.236237   C54.588718,159.789337 54.695423,159.626312 54.983582,159.234207   C58.268425,156.932724 60.267395,158.753677 61.669910,161.187973   C69.215096,174.283752 77.092911,187.182114 84.729340,200.223663   C91.267036,211.388779 98.048988,222.413422 104.823380,233.435898   C107.088226,237.121002 108.934410,241.026840 111.299614,244.651443   C112.625069,246.682663 112.424942,249.109741 111.683868,251.782349   C109.220901,254.921921 105.680641,255.051926 102.625343,256.218262   C100.600319,256.991272 98.611412,257.806396 96.548553,259.322205   C91.911423,260.764374 88.412453,264.004791 83.488770,264.516541   C84.958496,254.562317 77.738449,248.129593 73.750504,240.643829   C72.008926,237.374695 69.849236,234.210022 68.190514,230.794632   C63.631985,221.408279 57.044506,213.237823 52.078602,204.098495   C50.886116,201.903809 46.848896,201.795319 47.721008,197.683197  z"/>
<path fill="#D4DAD9" opacity="1.000000" stroke="none" d=" M41.151886,159.189941   C41.386993,159.045670 41.654602,159.234512 41.982124,159.735901   C41.825264,159.775391 41.539375,159.600250 41.151886,159.189941  z"/>
<path fill="#73B7DD" opacity="1.000000" stroke="none" d=" M135.651154,113.071121   C146.677399,114.328026 156.711884,118.378754 167.248550,120.324150   C168.865433,120.622681 170.482651,120.919441 172.514130,121.270584   C174.857529,122.256134 176.786514,123.188118 178.936035,124.365906   C179.740677,126.018555 178.714508,126.634125 177.450928,127.497780   C172.081268,128.167877 167.598282,125.769737 162.408051,125.057182   C154.957947,122.806282 147.835815,120.885796 140.682343,119.076118   C138.786758,118.596565 136.802719,118.302917 134.977142,116.634415   C134.189178,115.167030 134.410492,114.156769 135.651154,113.071121  z"/>
<path fill="#7CC2E5" opacity="1.000000" stroke="none" d=" M176.983536,127.441841   C177.617523,126.426132 178.239716,125.824837 179.009232,124.917633   C191.168045,127.136078 203.054993,130.123520 214.893921,134.429214   C215.593079,135.606903 215.189987,136.335052 214.310730,137.294800   C212.020493,138.471695 210.048203,137.965652 208.120987,137.515778   C198.743027,135.326660 189.505493,132.613907 180.260193,129.933899   C178.982056,129.563385 177.734375,129.075592 176.983536,127.441841  z"/>
<path fill="#84CBEB" opacity="1.000000" stroke="none" d=" M214.007599,137.717987   C214.240845,136.681915 214.544128,136.029388 214.987701,135.037735   C217.805618,135.164734 220.483261,135.630859 223.565201,136.127594   C228.158325,137.563614 232.347168,138.969009 236.777283,140.632507   C237.010971,141.682068 237.003357,142.473526 236.993317,143.659760   C234.205612,146.181244 231.612076,144.162994 228.971085,143.637863   C227.024399,143.250763 225.105682,142.706543 222.795044,142.120804   C219.609177,140.768188 216.256454,140.682831 214.007599,137.717987  z"/>

<path fill="#F6FCFC" opacity="1.000000" stroke="none" d=" M144.513000,452.580200   C143.423080,452.445129 142.651413,452.466339 141.510345,452.369720   C140.017944,451.956787 138.861008,452.020020 137.376556,451.887482   C128.633484,451.762665 120.657776,449.594757 112.452957,446.717010   C111.397934,446.223450 110.726341,445.823883 109.752258,445.474243   C107.086746,444.592438 104.712715,443.681641 102.091446,442.533661   C100.605911,440.571564 100.473892,438.595551 100.508965,436.567810   C100.632805,429.407196 100.254906,422.241638 100.834839,414.658112   C102.321190,411.306976 104.475166,412.486755 106.414238,413.302673   C109.911911,414.774353 113.139290,416.862183 117.182297,418.039490   C119.821030,419.853180 122.423882,420.815613 125.466537,421.598083   C126.234161,421.752869 126.665672,421.860229 127.406082,422.076477   C128.328445,422.366730 128.930679,422.587738 129.867142,422.793274   C130.593796,422.931427 131.006165,423.024170 131.722885,423.207581   C132.638535,423.462158 133.245605,423.644287 134.195679,423.775146   C135.174835,423.878448 135.825684,423.989136 136.808212,424.178864   C138.034958,424.475555 138.926773,424.713593 140.225494,424.698395   C141.598114,424.727753 142.598312,424.835175 143.983032,425.060394   C146.750656,425.896912 149.201324,425.567505 152.056274,425.596497   C154.582443,425.475952 156.670746,425.442810 159.010025,426.630951   C161.446075,434.186310 160.188782,441.580872 160.119324,448.926453   C160.100677,450.898254 158.450897,451.586975 156.316635,452.120422   C154.783524,452.347870 153.704407,452.463104 152.218643,452.521484   C149.515274,453.330505 147.173569,453.040802 144.513000,452.580200  z"/>
<path fill="#F6FCFC" opacity="1.000000" stroke="none" d=" M50.005203,399.445007   C45.530102,394.001282 43.075089,387.979614 41.058746,381.368408   C40.112221,369.227875 40.688263,357.440857 40.649967,345.663513   C40.634212,340.818207 41.753922,339.806458 46.517643,339.640472   C49.998165,339.519135 53.488945,339.452209 57.404350,339.866119   C60.400017,341.020447 60.256668,343.345612 60.310307,345.475220   C60.777119,364.009155 67.937057,379.686371 80.483360,393.102020   C81.928268,394.647034 83.787598,396.049194 83.030365,398.976685   C81.511192,400.312195 80.011337,400.421112 78.531700,400.370117   C69.172745,400.047699 59.771751,401.302307 50.005203,399.445007  z"/>
<path fill="#F6FCFC" opacity="1.000000" stroke="none" d=" M192.152710,444.515564   C189.697556,445.356476 187.488449,446.069183 185.020599,446.987244   C177.587402,449.229279 170.316849,450.796082 162.506393,451.620270   C160.186310,450.580078 159.994476,448.810730 160.014008,446.930664   C160.079010,440.672638 159.829651,434.412262 160.303375,427.725494   C161.686966,425.652863 163.536301,425.749878 165.709747,425.572327   C167.448929,425.608337 168.773346,425.708740 170.439148,425.254608   C171.765442,424.919281 172.746948,424.840485 174.078751,424.747833   C175.322128,424.681580 176.222717,424.704987 177.409363,424.385864   C178.331223,424.142181 178.954193,424.047150 179.876144,423.913330   C180.956879,423.753540 181.701614,423.543854 182.558868,422.823090   C182.982285,422.534332 183.163986,422.433319 183.643280,422.226685   C184.987579,421.860901 186.064316,421.887665 187.450363,421.746002   C188.429291,421.622894 189.069565,421.478180 189.995392,421.075928   C195.431473,418.853363 200.676483,417.055939 205.830139,414.089600   C208.108246,412.954468 209.775040,411.570465 211.622360,410.484222   C214.122589,409.014069 216.714737,407.981964 219.667145,410.437347   C220.767441,416.335602 221.297806,421.846741 219.298889,427.697083   C215.804825,432.541138 210.879791,434.720856 206.356873,437.406982   C202.531479,439.678802 198.572479,441.725677 194.326126,443.899200   C193.421951,443.974609 192.887054,444.101105 192.152710,444.515564  z"/>

<path fill="#F6FCFC" opacity="1.000000" stroke="none" d=" M99.322250,440.681610   C79.215569,432.500183 63.035610,419.556244 50.754745,401.383331   C52.171951,399.553162 54.091324,400.045898 55.857136,400.026184   C64.796173,399.926270 73.736633,400.104462 83.122513,399.857178   C90.685158,401.271545 95.540184,405.990936 100.125092,411.704651   C100.308235,421.544434 101.357155,430.968231 99.322250,440.681610  z"/>







<path fill="#CCD2DA" opacity="1.000000" stroke="none" d=" M144.278259,452.833557   C146.495712,451.442535 148.873642,452.006897 151.519394,452.269226   C149.576904,455.100494 146.941254,453.903076 144.278259,452.833557  z"/>
<path fill="#CCD2DA" opacity="1.000000" stroke="none" d=" M137.309540,452.080139   C138.269073,450.626099 139.545029,450.821533 140.991425,451.994202   C139.965332,452.840485 138.776581,452.664917 137.309540,452.080139  z"/>
<path fill="#4A5798" opacity="1.000000" stroke="none" d=" M89.920410,451.290344   C89.268051,451.324860 88.515808,451.036804 87.589088,450.484833   C88.341568,450.067169 89.246239,449.985229 89.920410,451.290344  z"/>
<path fill="#CCD2DA" opacity="1.000000" stroke="none" d=" M109.660995,445.732666   C110.364395,445.047729 111.183357,445.086029 111.991516,446.224731   C111.364677,446.343231 110.612946,446.152679 109.660995,445.732666  z"/>
<path fill="#415A9B" opacity="1.000000" stroke="none" d=" M248.585968,411.930176   C243.835449,420.978943 238.038956,429.030457 230.193146,435.854553   C228.896591,435.934448 227.403046,436.105103 227.323853,435.020996   C227.059448,431.401093 223.818146,429.959686 222.039429,427.048859   C221.821152,424.231415 223.887512,423.125214 225.260651,421.604401   C227.975052,418.597900 231.377945,416.169006 233.039841,411.990784   C232.941483,411.060944 232.448181,411.020630 231.585846,411.117493   C228.555969,411.405609 225.848923,411.582672 222.810242,410.844635   C219.777756,407.983398 221.734451,404.167236 219.837463,400.950165   C212.923477,389.224854 206.143372,377.422363 199.048492,365.799072   C186.091461,344.572021 173.072983,323.384277 160.855408,301.709106   C153.291855,288.290619 145.534393,274.967316 137.249176,261.578003   C139.017960,255.996719 143.772873,253.978806 148.256531,251.150208   C149.556000,250.674316 150.527252,250.427933 151.908264,250.346985   C154.766068,250.993011 155.971100,253.002441 157.333038,254.911331   C163.635971,263.745544 167.802948,273.813873 173.574936,282.944763   C178.634415,290.948517 182.943298,299.389740 188.216919,307.275391   C193.478607,315.143219 198.221970,323.381897 202.904587,331.581726   C214.359253,351.640259 226.881302,371.074829 237.726578,391.487762   C241.289383,398.193695 246.573883,403.981842 248.585968,411.930176  z"/>
<path fill="#E6EDF2" opacity="1.000000" stroke="none" d=" M234.866119,410.458405   C232.648071,417.270447 226.987625,421.348083 222.049683,426.434570   C221.160294,427.169464 220.421417,427.618958 219.358322,428.075134   C219.019135,422.381226 219.004181,416.680664 218.991150,410.515259   C219.582947,409.335693 220.365875,409.164185 221.623108,409.417450   C225.367645,409.762970 228.729874,409.942627 232.551468,410.088257   C233.566666,410.037689 234.102539,410.124298 234.866119,410.458405  z"/>
<path fill="#CCD2DA" opacity="1.000000" stroke="none" d=" M192.205688,444.777344   C192.152679,443.708466 192.479263,442.896240 193.844360,443.695251   C193.761124,444.663666 193.209137,444.901459 192.205688,444.777344  z"/>
<path fill="#84CBEB" opacity="1.000000" stroke="none" d=" M285.385986,232.938797   C282.434387,231.295471 280.200562,228.911438 276.409302,229.072357   C271.094635,229.892960 268.570068,226.594269 266.745087,223.026611   C257.962799,205.857895 248.574463,189.008728 239.852493,171.812347   C237.518295,167.210220 234.831223,162.810181 232.547226,158.186829   C231.577896,156.224670 230.423386,154.360153 231.844223,151.808548   C239.400482,150.553497 245.565506,153.744247 252.049316,157.083252   C256.892731,165.728424 261.301666,174.181061 265.722260,182.627380   C266.728241,184.549500 267.380310,186.573349 266.918579,189.144150   C266.261444,191.121475 264.897583,191.988693 263.490417,192.810791   C264.713379,192.077545 265.943390,191.523865 267.696350,191.801422   C275.639343,206.086258 283.280823,220.234741 290.939636,234.745911   C289.216614,234.403976 287.476257,233.699356 285.385986,232.938797  z"/>
<path fill="#F6FCFC" opacity="1.000000" stroke="none" d=" M340.642670,141.308868   C358.566772,130.338303 377.003632,121.591454 397.596069,116.975891   C400.219757,119.946045 399.831848,123.069008 398.300476,126.644974   C387.315033,132.303894 376.685883,137.723083 365.882812,142.769928   C358.248199,146.336578 350.819305,150.388672 342.435364,153.184219   C337.571289,149.978104 339.902618,145.720428 340.642670,141.308868  z"/>
<path fill="#F4FAFB" opacity="1.000000" stroke="none" d=" M252.330688,158.135635   C245.861160,155.068466 239.437408,153.167923 232.429688,151.820557   C227.991287,152.133255 224.516281,150.849228 221.318726,147.801437   C220.497665,145.377518 220.421753,143.362778 221.731613,141.087326   C226.961243,140.978928 231.355988,143.443817 236.587463,144.039551   C250.825745,148.191940 264.660583,152.329361 278.768372,156.714325   C280.554047,160.285156 278.327118,161.032410 275.867706,161.263458   C272.144897,161.613174 268.394745,161.377350 264.196655,161.407471   C259.861359,161.089142 256.073090,160.440643 252.330688,158.135635  z"/>
<path fill="#F1F9FA" opacity="1.000000" stroke="none" d=" M339.271881,154.560272   C333.688110,159.032761 327.129578,160.672440 321.431610,164.027664   C318.520813,165.741684 315.487488,162.977798 312.460449,162.490021   C310.426483,162.162262 308.524261,161.016769 305.369507,159.762634   C316.531189,153.009964 327.310303,147.313248 338.622375,141.868973   C340.761902,145.882828 340.040039,150.032730 339.271881,154.560272  z"/>
<path fill="#F1F9FA" opacity="1.000000" stroke="none" d=" M293.708618,161.629028   C301.464081,162.399826 308.220154,165.266251 315.241547,167.079590   C316.062714,167.291641 316.948578,167.579010 316.846405,168.600845   C316.705444,170.010696 315.341003,170.289612 314.341614,170.722229   C303.890167,175.246094 293.413361,179.711349 282.574829,184.258392   C281.691132,184.407898 281.242188,184.282410 280.725525,183.568130   C281.508881,179.500198 285.089569,178.672409 287.716156,176.865173   C290.113129,175.215912 292.950867,174.207031 295.537842,171.785995   C291.946777,169.928772 288.468689,169.487595 285.237549,168.372498   C283.046021,167.616150 280.641937,167.183167 280.161865,163.910614   C280.856140,160.885818 283.021149,160.661224 285.137604,160.575439   C287.881866,160.464203 290.591980,160.901154 293.708618,161.629028  z"/>
<path fill="#EDF8FA" opacity="1.000000" stroke="none" d=" M398.388367,126.976791   C398.012665,123.995560 398.006836,120.947273 398.000885,117.442917   C412.444275,112.040733 427.169952,114.341148 441.905975,115.038177   C426.987305,117.326797 412.736908,121.614883 398.388367,126.976791  z"/>
<path fill="#D4DAD9" opacity="1.000000" stroke="none" d=" M293.911346,161.486572   C290.915527,161.831161 287.685242,161.912689 284.454407,161.960709   C282.796234,161.985352 281.085968,161.872375 280.964996,164.667572   C280.530609,165.393768 280.079407,165.547333 279.223877,165.414856   C276.553162,162.416534 273.446167,163.333237 270.109497,163.605499   C267.218781,163.254364 264.665741,162.947540 262.958862,160.378418   C267.129822,159.991028 271.245605,159.997299 275.361176,159.971893   C276.977478,159.961914 278.833344,160.280609 279.014771,157.380676   C283.889038,158.483673 289.001221,159.094208 293.911346,161.486572  z"/>
<path fill="#DBE0DF" opacity="1.000000" stroke="none" d=" M280.639160,182.652069   C281.186493,183.238724 281.433289,183.586517 281.943115,184.129120   C278.376129,188.059784 272.971405,188.861603 268.306824,191.777893   C265.582062,192.845627 263.166229,193.753510 260.750366,194.661377   C260.617920,194.408371 260.485474,194.155380 260.352997,193.902374   C262.041962,192.729080 263.730896,191.555786 265.707794,190.209747   C269.907410,185.860245 274.367645,182.715530 280.639160,182.652069  z"/>
<path fill="#67A6D2" opacity="1.000000" stroke="none" d=" M319.623413,212.997269   C320.215118,213.295563 320.428986,213.589462 320.864868,214.051361   C316.848511,218.366104 310.694275,217.833191 305.674561,220.242706   C309.823486,217.108429 314.197357,214.445435 319.623413,212.997269  z"/>
<path fill="#D4DAD9" opacity="1.000000" stroke="none" d=" M339.319611,154.962982   C338.988007,150.901001 338.997223,146.852722 339.001801,142.325958   C339.446655,141.555435 339.896149,141.263367 340.620605,140.929153   C341.359741,144.777832 340.388855,148.739182 341.766876,152.922043   C341.839935,154.623444 340.885223,154.987335 339.319611,154.962982  z"/>
<path fill="#79BEE2" opacity="1.000000" stroke="none" d=" M252.229614,234.868683   C248.545364,237.828445 243.847885,237.335724 239.423355,239.064240   C233.265305,235.115326 231.683746,228.301315 228.161804,222.804810   C225.407394,218.506180 223.529434,213.685486 220.879044,209.296555   C219.915741,207.701355 219.709595,205.877060 219.972687,203.663879   C220.533279,201.622360 221.675491,200.366379 223.111694,199.553436   C226.808487,197.460815 225.641434,195.811768 222.991730,193.763245   C217.005371,189.135162 210.289932,185.407440 205.115860,179.246277   C200.642456,170.905258 195.989273,163.078354 191.760071,155.012589   C189.834335,151.339920 187.899078,147.674347 186.100632,143.938995   C185.227615,142.125778 184.533920,140.246414 185.774506,137.935577   C191.944412,137.454193 197.191925,139.764984 202.768799,142.213928   C211.923340,160.175018 221.783279,177.359924 231.050934,194.853546   C238.058914,208.081833 244.732910,221.490707 252.229614,234.868683  z"/>
<path fill="#7FC5E7" opacity="1.000000" stroke="none" d=" M221.680466,147.705322   C225.138214,149.127731 228.274216,150.304459 231.715317,151.647964   C232.029938,153.457870 232.125275,154.962906 232.977676,156.562683   C241.674133,172.884186 250.234146,189.278366 258.842255,205.646973   C261.846283,211.359222 264.733307,217.140366 267.956146,222.727142   C269.636322,225.639694 271.652863,228.570450 275.861267,228.820816   C271.526703,231.242310 266.497467,231.523636 261.417786,233.074265   C256.795624,231.044891 255.201157,226.821899 253.238770,223.081253   C241.293396,200.311172 229.141510,177.651321 217.115097,154.924789   C215.840439,152.516037 213.809906,150.219315 214.954163,146.814499   C217.450165,145.667709 219.438507,146.337509 221.680466,147.705322  z"/>
<path fill="#7CC2E5" opacity="1.000000" stroke="none" d=" M214.843170,146.442871   C218.964859,157.396820 225.097641,166.910004 230.125687,176.968307   C237.605820,191.931854 245.794083,206.541046 253.656097,221.314301   C255.743454,225.236588 257.871429,229.121262 260.971497,232.761597   C258.578583,234.620972 255.616959,234.129333 252.678894,235.201965   C247.391617,232.015747 245.927551,226.378357 243.511002,221.661392   C230.668961,196.594543 216.919479,172.018738 203.712860,147.151443   C203.128082,146.050385 203.017456,144.969986 202.998413,143.423828   C207.449783,141.901886 211.152252,143.636795 214.843170,146.442871  z"/>
<path fill="#73B7DD" opacity="1.000000" stroke="none" d=" M220.530853,202.506638   C221.025360,210.584839 226.493225,216.224335 229.649017,222.798447   C232.249847,228.216461 234.991577,233.708160 238.993011,238.748505   C239.036148,239.107788 239.021240,239.557999 239.011734,239.783096   C234.026001,241.054291 229.049759,242.100403 223.665207,243.145584   C221.100510,244.177567 218.764359,244.342377 217.326080,242.353409   C211.008636,233.617188 205.348389,224.504227 202.809692,213.446732   C203.508102,209.499008 206.978088,209.065186 209.301346,207.496704   C212.628799,205.250259 215.805878,202.444794 220.530853,202.506638  z"/>
<path fill="#6CAFD8" opacity="1.000000" stroke="none" d=" M203.517731,212.514648   C203.575577,216.347015 205.224380,219.255219 207.031326,222.292191   C210.210693,227.635849 212.913773,233.261185 215.881439,238.733261   C217.275345,241.303497 219.128326,243.322296 222.848145,243.097137   C218.499863,246.374527 212.679535,246.435715 207.249985,248.688904   C204.650726,249.329163 202.309265,249.710114 199.571136,250.095428   C198.391922,250.790283 197.342163,250.943161 196.219650,251.623718   C195.229599,251.852127 194.486084,251.902542 193.369980,251.962830   C188.342850,248.421326 186.542175,243.026459 184.145462,238.055023   C182.413208,234.461792 179.220306,231.281479 180.565369,226.362595   C180.779266,225.802216 180.876358,225.583252 181.142899,225.048859   C181.560211,224.328888 181.828201,223.938156 182.343933,223.292618   C184.371918,221.548080 186.556580,220.701477 188.782547,219.242584   C192.281784,217.638046 195.194229,215.732666 198.115509,213.834045   C199.645279,212.839813 201.228760,211.876144 203.517731,212.514648  z"/>
<path fill="#425F9E" opacity="1.000000" stroke="none" d=" M248.997345,412.016846   C246.358963,408.201874 243.934875,404.165985 241.558792,400.102020   C231.704071,383.246948 221.878464,366.374847 212.013458,349.525757   C204.746292,337.113708 197.785843,324.501984 190.016418,312.411255   C185.023468,304.641266 180.295486,296.723724 175.561264,288.812347   C170.306412,280.030945 165.714630,270.851685 160.425003,262.092712   C158.148956,258.323914 156.293869,254.108536 152.309601,251.150909   C150.331116,249.953934 148.779007,250.265594 147.003906,251.607315   C140.330322,253.817947 134.272446,256.711884 127.491455,258.610779   C125.806778,258.015930 124.984322,257.049011 124.509857,255.346771   C126.183647,251.033905 130.351334,251.108398 133.461838,249.490387   C135.361145,248.502396 137.484222,248.000748 139.857452,247.221741   C141.114227,246.727142 142.445068,246.748856 142.070145,244.818512   C140.907959,240.371902 138.613022,236.981537 135.705078,233.942856   C134.079300,232.243973 132.530060,230.477402 133.443146,227.499557   C135.607071,225.977295 136.649414,227.678879 137.811142,228.665024   C143.337936,233.356384 148.719879,238.216370 154.546661,243.114075   C157.739899,245.812149 158.647903,249.818619 161.738937,252.193848   C166.383789,255.763077 171.555054,257.272308 177.678955,256.862488   C178.006729,257.823730 178.017517,258.608215 178.047150,259.784546   C181.133545,264.742615 186.221359,266.912567 190.187988,270.410004   C192.268784,272.244690 195.181213,273.227570 196.117065,276.525330   C196.026077,280.039185 198.655655,281.743225 200.067535,284.117645   C209.378860,299.776703 218.747192,315.402008 228.022751,331.082214   C236.287460,345.053558 244.508057,359.051636 252.648865,373.095428   C257.716034,381.836853 262.384949,390.809784 268.063049,399.192200   C269.644226,401.526489 268.965668,403.962616 268.038879,406.751404   C263.618317,408.834961 258.928253,408.706085 254.387527,409.458862   C252.466751,409.777313 250.344620,409.662933 248.997345,412.016846  z"/>
<path fill="#62A3D0" opacity="1.000000" stroke="none" d=" M178.389206,257.013153   C170.831146,259.319763 162.657684,256.541351 158.212936,250.268967   C156.884598,248.394409 155.660492,246.445984 154.202148,244.247391   C150.926865,239.680435 147.560074,235.581375 145.172333,230.830414   C143.195450,226.896973 143.661789,225.645767 147.846497,223.323318   C146.247803,218.242188 145.964172,213.056961 143.556763,208.530762   C142.821655,207.148651 143.413757,206.378662 144.560318,205.747314   C146.139038,204.878052 147.720871,204.014404 149.650452,203.072159   C152.734695,201.080109 154.365112,203.258514 155.934830,204.802948   C160.666580,209.458511 165.111221,214.433304 169.246689,219.584686   C172.624741,223.792603 175.768768,226.837372 181.741592,224.807129   C180.724594,228.170288 181.483017,230.905762 183.150101,233.797562   C186.482758,239.578568 188.934799,245.855606 192.961197,251.624542   C188.830688,255.264557 183.506210,255.274323 178.389206,257.013153  z"/>
<path fill="#62A3D0" opacity="1.000000" stroke="none" d=" M196.383698,276.941406   C191.221619,271.957520 185.275864,268.476715 179.957184,264.199097   C178.956680,263.394409 176.303345,263.223022 177.923798,260.450500   C181.547760,259.137115 185.128647,258.343536 188.483704,256.990143   C191.912491,255.607010 193.915665,256.079590 195.425705,259.729706   C197.261017,264.166046 199.848038,268.288483 201.747681,272.702576   C202.514404,274.484161 205.385605,276.275421 202.455307,278.723511   C199.533707,281.164337 198.673309,277.411682 196.383698,276.941406  z"/>
<path fill="#62A3D0" opacity="1.000000" stroke="none" d=" M196.322861,251.871140   C196.169098,250.327927 197.140579,249.942474 198.813553,250.067368   C198.906326,251.482361 198.069962,252.092697 196.322861,251.871140  z"/>
<path fill="#4D86BA" opacity="1.000000" stroke="none" d=" M427.204315,245.056244   C427.432220,245.530487 427.416534,246.072128 427.194153,246.804901   C426.076935,246.384781 425.929901,245.762634 427.204315,245.056244  z"/>
<path fill="#40599A" opacity="1.000000" stroke="none" d=" M133.994141,226.724915   C133.538635,229.843628 135.050339,231.635727 136.881729,233.440399   C139.916641,236.431015 142.469513,239.776978 142.999786,244.613708   C141.913895,246.448029 139.895569,246.080688 138.349670,247.412262   C136.932999,248.103302 135.759430,248.162781 134.224686,248.062286   C132.720062,247.827103 131.666946,248.138657 130.327271,248.845001   C123.744202,249.510956 117.976501,252.562363 111.303421,252.185120   C111.992012,244.986847 107.237076,240.240540 104.210800,234.946823   C101.024750,229.373611 97.453018,224.036560 94.503036,218.295593   C92.251183,213.913269 89.021194,210.045883 86.496773,205.789032   C77.906860,191.304092 69.388245,176.776108 60.974510,162.188354   C59.745453,160.057404 58.390778,158.825851 55.542347,159.005920   C58.540771,146.451904 63.620613,134.602158 70.155914,123.036690   C74.885193,122.191452 77.733269,124.515862 80.905693,131.086441   C87.138870,143.996262 94.883652,156.020416 102.290787,168.266724   C106.796471,175.716049 111.058998,183.375824 115.454575,190.927994   C119.601410,198.052795 123.326866,205.462158 127.982010,212.234741   C130.217712,215.487350 126.044350,217.017532 127.563446,219.753860   C130.165039,221.828690 132.679581,223.518341 133.994141,226.724915  z"/>
<path fill="#F4FAFB" opacity="1.000000" stroke="none" d=" M89.002213,279.593445   C83.044823,278.447510 77.394150,279.316711 71.780579,279.022217   C69.986107,278.928131 68.124748,279.430695 66.128860,278.149872   C70.836349,272.673767 76.799049,268.797180 82.945618,264.650208   C86.986244,262.515106 90.837769,260.643555 95.037079,258.757782   C98.801285,257.009186 100.236221,258.418091 100.396172,261.887848   C100.487679,263.873016 100.497993,265.854889 100.238197,268.237488   C99.078789,273.600891 94.483070,275.504211 91.072159,278.928131   C90.331772,279.391052 89.866920,279.556122 89.002213,279.593445  z"/>
<path fill="#67A6D2" opacity="1.000000" stroke="none" d=" M135.767395,112.619598   C135.697937,113.665367 135.372803,114.454872 135.015961,115.562393   C133.311737,117.406960 131.499130,116.444000 129.825226,116.021484   C124.529747,114.684837 119.104492,113.886162 113.877632,112.302780   C109.024818,110.832718 104.853783,112.120384 100.385696,115.068306   C103.439941,117.077530 106.118904,119.504829 109.601486,117.964935   C117.438240,114.499763 124.027260,118.290894 131.109924,121.303902   C134.272217,127.698517 137.468918,133.654205 141.607605,139.066315   C142.595367,140.357986 143.779663,141.622299 143.334442,143.818451   C142.065048,144.915390 140.874130,144.745758 139.842224,144.181625   C130.369720,139.003311 120.327408,134.847473 111.292000,128.162857   C104.828407,124.460808 98.601212,121.054840 92.390129,117.619751   C90.835358,116.759865 88.432198,116.220604 88.516731,114.242386   C88.595757,112.392967 91.069870,112.573120 92.521584,112.030632   C98.341385,109.855911 103.692207,106.269463 110.583038,106.071678   C119.164589,108.177742 127.338158,110.270546 135.767395,112.619598  z"/>
<path fill="#4263A1" opacity="1.000000" stroke="none" d=" M111.063141,128.237335   C119.668503,132.383575 128.281311,136.901260 136.911255,141.385941   C138.666962,142.298325 140.487228,143.086502 142.637024,143.971924   C147.376266,145.534363 151.479538,147.586487 155.416672,150.679993   C162.764481,162.945038 169.467972,175.159775 176.647003,187.095215   C181.093613,194.487930 185.039734,202.174744 189.905212,209.324280   C192.212479,212.714630 193.289062,216.293625 189.287201,219.858246   C187.400589,221.648804 185.538513,222.814041 183.210861,223.793533   C182.838440,224.207016 182.662048,224.353470 182.254517,224.754562   C182.023376,225.009201 182.005264,225.001663 182.010544,225.014557   C174.214355,227.626434 174.383377,227.486923 168.532135,220.398331   C164.121140,215.054520 159.211014,210.122238 154.512207,205.016785   C153.495285,203.911865 152.445450,202.824249 150.366211,203.001297   C153.920258,195.235657 148.185013,190.255417 144.808456,184.497253   C136.035309,169.536102 127.491623,154.440277 118.699036,139.490738   C116.459221,135.682510 113.633278,132.218994 111.063141,128.237335  z"/>
<path fill="#5D9CCB" opacity="1.000000" stroke="none" d=" M134.295807,227.199188   C132.209396,224.730179 129.074112,223.665344 127.872116,220.349854   C132.004517,216.401184 135.747803,219.517761 139.600922,220.869171   C142.162827,221.767700 144.354904,223.856522 147.672668,223.117767   C148.157928,223.392212 148.348022,223.798859 148.538116,224.205521   C142.775421,226.238770 145.867630,229.073730 147.460114,232.318542   C149.349533,236.168381 152.876724,238.979614 154.006989,243.598969   C147.544327,238.416840 141.072937,232.870285 134.295807,227.199188  z"/>
<path fill="#E6EDF2" opacity="1.000000" stroke="none" d=" M99.343262,270.180084   C99.004890,267.102753 98.863708,264.161987 99.049026,261.241882   C99.199318,258.873688 98.127724,258.454834 95.780518,258.805115   C99.790482,255.213882 105.371086,254.448837 110.693787,252.150482   C117.459000,250.891754 123.593719,248.323959 130.572189,247.652298   C131.410568,247.319519 131.859848,247.186142 132.677002,247.102478   C134.419006,247.018417 135.808456,246.937317 137.590668,246.711807   C139.134323,246.124252 140.199310,246.115463 141.073364,247.600037   C135.704224,249.746887 130.442230,251.784653 125.165100,254.608978   C123.758850,256.851532 121.604469,257.435852 119.768417,258.471802   C114.628830,261.371765 109.362068,264.068390 104.995636,268.157501   C103.523605,269.536041 101.802544,270.461029 99.343262,270.180084  z"/>
<path fill="#F1F9FA" opacity="1.000000" stroke="none" d=" M215.412628,146.821960   C211.263641,145.553986 207.509064,144.308197 203.376007,143.049988   C197.584076,141.380127 192.170639,139.722672 186.375793,138.055923   C185.587494,138.323776 185.115585,138.789825 184.693115,138.668777   C176.751038,136.393158 168.442764,135.144165 161.173096,130.057465   C160.529404,127.874283 160.532135,126.125473 161.724655,124.125229   C166.923386,124.155396 171.476059,125.970116 176.600998,127.011017   C188.787704,131.309006 200.879044,134.531540 213.528687,137.279572   C216.466934,138.335632 218.996338,139.336823 221.786316,140.555817   C222.031815,142.871918 222.016739,144.970230 222.001938,147.509766   C219.937149,147.582062 217.872101,147.213104 215.412628,146.821960  z"/>
<path fill="#EDF8FA" opacity="1.000000" stroke="none" d=" M161.760178,123.582550   C162.020264,125.631035 161.999481,127.457413 161.962997,129.736557   C161.320541,130.798279 160.534958,131.028015 159.286285,131.145416   C149.679871,128.573853 140.237564,126.766380 131.287201,122.228745   C126.578323,120.551910 122.128639,119.227791 117.740150,117.724983   C116.175659,117.189232 114.691193,117.224731 113.435928,118.031174   C108.799362,121.009949 104.683670,119.979706 100.654968,116.808113   C99.788033,116.125626 98.607681,115.841255 96.917854,115.078278   C103.092178,111.870735 108.425713,108.877747 115.385521,111.191566   C121.503777,113.225609 127.924919,114.348564 134.598267,115.877151   C143.815933,118.373756 152.647614,120.867104 161.760178,123.582550  z"/>
<path fill="#434D91" opacity="1.000000" stroke="none" d=" M88.513756,279.809570   C88.941185,279.432739 89.244820,279.300232 89.791122,279.127289   C92.687057,279.243866 93.037704,281.097778 93.020164,283.585327   C90.636559,289.423157 86.580284,293.677979 82.944000,298.169525   C75.973343,306.779694 73.615814,317.109100 71.524658,327.527771   C70.845001,330.914001 70.124855,334.382751 70.346268,338.292175   C70.347343,339.176392 70.343727,339.679840 70.339027,340.556213   C71.523819,363.127930 81.044243,380.745056 99.568947,393.775757   C100.626335,394.513489 101.324829,395.136200 102.417488,395.793579   C104.257164,396.903046 105.950783,397.522949 107.888092,398.418640   C109.266815,399.733063 110.409676,400.791809 112.337822,401.303467   C120.368248,404.788391 128.117996,408.010193 136.633957,410.219727   C138.405167,411.469788 140.040649,411.802338 142.193054,411.641235   C144.760376,411.639557 146.951981,411.594116 149.124603,413.288879   C151.407455,417.165558 154.133362,420.533722 152.682312,425.453064   C149.969391,427.096252 147.409027,425.518555 144.488083,425.828522   C143.003403,425.701599 141.902359,425.647369 140.422150,425.422882   C139.272217,425.038910 138.473724,425.002960 137.396179,424.822754   C136.323685,424.722198 135.543015,424.684082 134.399200,424.495361   C133.609955,424.202515 133.178162,424.080475 132.409607,423.916992   C131.608780,423.808350 131.139023,423.761261 130.352432,423.550781   C129.613068,423.227936 129.184509,423.086731 128.420929,422.883911   C127.615273,422.753082 127.138603,422.702240 126.348419,422.470367   C123.372749,421.399780 120.648277,420.683258 117.764313,419.422760   C112.157150,418.071045 107.628990,415.094238 102.396591,412.823486   C101.260757,412.146088 100.483948,411.539185 99.414230,410.857849   C94.783913,407.474152 90.446510,404.164856 85.811996,400.714722   C84.861877,399.799561 84.208847,399.025269 83.262863,398.165833   C74.642967,389.341675 67.585396,379.756531 63.302975,368.348969   C60.111816,359.848358 58.600853,351.049866 58.733757,341.511200   C58.708324,340.588013 58.771717,340.117065 58.766411,339.293823   C60.647442,316.178406 72.268227,298.179199 86.996056,281.342041   C87.519234,280.698242 87.956581,280.380615 88.513756,279.809570  z"/>
<path fill="#404F94" opacity="1.000000" stroke="none" d=" M152.430038,426.240601   C153.185989,421.507782 149.908585,418.383026 149.006073,414.240173   C151.620926,411.842438 154.691132,412.758850 158.017975,412.550659   C159.022980,412.585815 159.594025,412.593933 160.584366,412.594086   C163.466324,412.509766 165.929810,412.659271 168.795319,412.551025   C170.003418,412.554321 170.796753,412.485138 171.952377,412.103638   C174.765182,411.656372 177.135315,410.722565 180.020569,411.553162   C183.253677,414.851654 185.290939,418.199738 183.494720,423.054749   C183.363800,423.465332 183.321915,423.519348 183.329590,423.552643   C182.692719,423.590271 182.140350,423.914642 181.250046,424.197144   C180.198059,424.483795 179.444275,424.674377 178.298645,424.827942   C177.122452,424.966797 176.312561,424.980896 175.242615,425.256409   C173.879044,425.534943 172.802628,425.723450 171.316193,425.856323   C169.818985,426.032898 168.702026,425.943512 167.283539,426.171387   C165.262527,426.444946 163.566315,426.652740 161.453766,426.977722   C160.578979,427.015381 160.120499,426.935913 159.322388,426.949341   C156.951523,426.914886 154.920288,426.787476 152.430038,426.240601  z"/>
<path fill="#4775AE" opacity="1.000000" stroke="none" d=" M151.592361,425.822388   C151.971008,425.821106 152.046890,426.139832 152.043686,426.303375   C149.582062,426.971832 147.152740,426.675018 144.417145,425.978668   C146.489502,424.176971 148.848999,425.273132 151.592361,425.822388  z"/>
<path fill="#4775AE" opacity="1.000000" stroke="none" d=" M117.663597,419.656799   C120.497734,419.081573 123.070946,420.602722 125.895912,422.002563   C123.090134,422.303284 120.534546,420.992554 117.663597,419.656799  z"/>
<path fill="#4775AE" opacity="1.000000" stroke="none" d=" M137.341156,424.972778   C138.017807,423.757690 138.929337,423.828430 139.941132,425.008911   C139.221313,425.230164 138.399628,425.207703 137.341156,424.972778  z"/>
<path fill="#4775AE" opacity="1.000000" stroke="none" d=" M132.259689,424.070374   C132.704941,422.906677 133.309341,423.066589 133.968292,424.118195   C133.504288,424.324982 132.972565,424.305145 132.259689,424.070374  z"/>
<path fill="#4775AE" opacity="1.000000" stroke="none" d=" M128.270920,423.018341   C128.766632,421.871857 129.361725,422.098389 129.975464,423.158264   C129.507050,423.335846 128.978470,423.284302 128.270920,423.018341  z"/>
<path fill="#405397" opacity="1.000000" stroke="none" d=" M183.753708,423.511169   C183.204269,419.623230 182.568863,415.927185 180.044342,412.436249   C183.143204,408.462616 187.948517,408.951874 192.152435,407.196716   C192.628265,406.920837 193.074341,407.370911 192.958984,406.895935   C192.081879,407.011047 191.405807,406.969574 190.454132,406.700562   C189.262360,406.089569 188.323990,405.716095 186.902466,405.991913   C180.926239,405.552399 175.459656,404.344086 169.900009,402.103119   C169.900253,390.110535 161.626724,382.166626 156.422043,373.021881   C143.774353,350.799622 130.279388,329.060364 117.844879,306.707825   C116.193222,303.738831 114.245491,301.571228 110.285286,301.428467   C108.915039,298.599609 110.568695,296.539490 111.473145,294.337524   C113.270821,289.960907 116.395340,286.260925 118.092018,281.406616   C119.617714,278.912506 121.448036,277.205627 123.795639,275.500000   C127.759636,274.206268 129.778000,276.395935 131.497360,279.012665   C136.616211,286.803009 140.859634,295.113342 145.810776,303.015198   C154.014206,316.107544 161.187180,329.817719 169.521484,342.851105   C173.542404,349.139099 176.451065,356.125916 180.586823,362.381195   C189.680634,376.135529 197.161377,390.843994 205.823105,404.850067   C207.815048,408.071075 208.981796,411.101044 206.266876,414.808533   C201.394470,418.439392 196.043304,420.150879 190.289581,421.798950   C189.468750,421.909454 189.028915,422.040283 188.279556,422.330231   C186.689850,422.829559 185.416733,423.193268 183.753708,423.511169  z"/>
<path fill="#42589A" opacity="1.000000" stroke="none" d=" M206.393723,415.064026   C207.843689,410.526550 205.668106,407.143188 203.320541,403.301056   C197.098236,393.117432 192.178818,382.077911 185.397369,372.311951   C178.125870,361.840302 172.475555,350.475708 165.752991,339.721771   C158.680862,328.408569 152.222244,316.645355 145.510071,305.071167   C140.453217,296.351288 135.177536,287.758545 130.058624,279.074219   C128.852264,277.027649 127.346794,275.745270 124.475739,276.003235   C123.927765,271.958588 127.592125,270.275391 129.526703,267.598602   C131.514999,264.847473 133.834763,262.096466 137.543823,260.699646   C143.061371,269.138458 148.380844,277.461517 153.334473,285.996857   C160.115250,297.680481 166.465179,309.615356 173.314804,321.257202   C176.077911,325.953461 179.098602,330.506226 181.868790,335.219055   C191.801224,352.116791 202.874557,368.332947 212.214920,385.582520   C215.046356,390.811554 218.759338,395.472687 221.235703,400.970367   C222.512375,403.804657 223.069534,406.085175 222.015778,409.220764   C221.254990,409.704956 220.504578,409.826569 219.373611,409.999329   C213.481689,408.190033 211.000610,413.784332 206.393723,415.064026  z"/>
<path fill="#4775AE" opacity="1.000000" stroke="none" d=" M167.282623,426.380188   C167.805954,424.595825 169.138519,424.897736 170.707474,425.575562   C169.947144,426.684723 168.763489,426.543091 167.282623,426.380188  z"/>
<path fill="#4775AE" opacity="1.000000" stroke="none" d=" M175.258499,425.462708   C175.431458,423.982147 176.359863,423.813995 177.732910,424.576294   C177.125031,425.053558 176.343277,425.316284 175.258499,425.462708  z"/>
<path fill="#4775AE" opacity="1.000000" stroke="none" d=" M181.204926,424.399353   C181.281097,423.426819 181.882462,423.047791 183.074219,423.420471   C182.710831,423.892456 182.084427,424.198975 181.204926,424.399353  z"/>
<path fill="#4775AE" opacity="1.000000" stroke="none" d=" M188.236786,422.537689   C188.171295,421.569733 188.529755,420.910553 189.769562,421.606018   C189.446701,422.069305 188.978653,422.339417 188.236786,422.537689  z"/>

<path fill="#4469A6" opacity="1.000000" stroke="none" d=" M149.250244,251.965363   C148.475632,251.597427 148.029709,251.226395 147.290619,250.748016   C148.453583,248.108994 150.105545,248.333740 151.943756,250.647614   C151.197449,251.321793 150.388168,251.642014 149.250244,251.965363  z"/>
<path fill="#4A7EB4" opacity="1.000000" stroke="none" d=" M235.044235,410.301147   C234.557312,410.517975 233.991302,410.482513 233.218063,410.250671   C233.659348,409.008698 234.310913,409.047119 235.044235,410.301147  z"/>
<path fill="#89D1EF" opacity="1.000000" stroke="none" d=" M281.144043,182.627441   C275.437225,183.661697 271.495453,187.661667 266.323914,189.916534   C266.429230,183.025375 261.423706,178.194260 258.857452,172.395157   C256.782654,167.706543 254.343719,163.179062 252.042725,158.199844   C255.418411,158.531693 258.817688,159.243805 262.615540,159.976669   C264.871887,161.612640 267.378387,161.618912 269.842285,162.670181   C273.066376,162.542206 275.848663,162.784546 278.655212,164.636383   C279.396423,164.933945 279.835175,164.988235 280.604004,165.066315   C285.208771,167.850342 290.337494,168.080292 294.959717,169.814590   C296.030640,170.216400 297.484344,170.285797 297.681030,171.611328   C297.898590,173.077530 296.326416,173.294998 295.394562,173.865219   C290.726776,176.721451 286.033020,179.535233 281.144043,182.627441  z"/>
<path fill="#EDF8FA" opacity="1.000000" stroke="none" d=" M278.955139,164.483887   C276.033081,165.216583 273.686523,163.203110 270.557373,162.817505   C273.252136,162.297760 276.600159,159.978088 278.955139,164.483887  z"/>
<path fill="#4469A6" opacity="1.000000" stroke="none" d=" M189.418732,220.086792   C192.154938,215.041458 189.596909,211.351196 186.774841,206.895264   C179.558029,195.500198 173.165405,183.583832 166.417984,171.890472   C163.947754,167.609543 161.836105,163.133392 158.828979,159.143280   C157.180237,156.955612 155.121948,154.825211 155.001648,151.404724   C158.329025,150.169113 160.546158,152.711411 163.235382,153.776245   C166.791306,155.184265 169.768860,157.752548 173.753296,159.149796   C180.979950,163.161041 187.874680,167.016846 194.918777,170.604218   C198.876862,172.619965 202.802673,174.740540 205.784012,178.703888   C211.119202,184.126968 217.225891,188.026001 222.954025,192.376724   C229.000565,196.969299 229.167862,196.745041 222.898544,201.035721   C222.357391,201.406097 221.851883,201.828537 221.102859,202.460052   C214.638351,204.686829 209.742279,209.076385 203.954285,212.400467   C198.419952,213.752899 194.877655,218.390076 189.418732,220.086792  z"/>
<path fill="#73B7DD" opacity="1.000000" stroke="none" d=" M205.998581,178.624786   C196.066299,171.813644 184.717163,167.086044 174.109711,160.456818   C167.501740,152.421066 163.340103,143.346573 158.897415,134.439133   C158.299652,133.240692 157.913391,131.953766 158.767883,130.310455   C159.738144,130.034042 160.475754,130.054245 161.580353,130.131897   C169.711960,132.759384 177.476624,135.329437 185.617813,137.973053   C186.299072,144.330414 190.211853,149.107788 192.939789,154.343552   C197.135071,162.395660 201.627960,170.292709 205.998581,178.624786  z"/>
<path fill="#62A3D0" opacity="1.000000" stroke="none" d=" M182.234528,224.903809   C182.076096,224.662384 182.250000,224.394165 182.779953,224.132553   C182.900314,224.364517 182.710587,224.610474 182.234528,224.903809  z"/>
<path fill="#4A5798" opacity="1.000000" stroke="none" d=" M126.916870,257.829102   C118.039391,263.289673 109.009186,268.422455 101.056290,275.631653   C99.658295,277.402069 98.504501,278.955048 97.490509,281.015900   C95.920273,282.514282 94.590065,283.811768 92.375671,284.185272   C91.938988,282.470306 92.367302,280.651642 90.253647,279.373840   C92.099800,275.479828 96.432228,274.070923 98.735207,270.230713   C107.555168,265.254578 114.994080,258.613586 124.582268,254.922943   C125.554237,255.758514 126.169304,256.645233 126.916870,257.829102  z"/>
<path fill="#4469A6" opacity="1.000000" stroke="none" d=" M141.440582,248.018433   C140.630676,246.941757 139.649109,246.873459 138.329224,246.678955   C138.727448,244.203400 140.729736,245.263916 142.623077,245.001129   C144.742615,246.869247 143.939575,247.711990 141.440582,248.018433  z"/>
<path fill="#4570AA" opacity="1.000000" stroke="none" d=" M167.242310,224.747894   C167.957779,225.477081 168.539444,225.885010 168.868256,226.442184   C169.759872,227.952972 173.084854,228.920441 170.974503,231.107590   C168.671707,233.494156 167.068283,230.680069 165.867569,229.136398   C160.494202,222.228271 155.284866,215.192581 150.016296,208.202942   C150.441147,207.816589 150.866013,207.430237 151.290878,207.043869   C156.524979,212.860825 161.759079,218.677765 167.242310,224.747894  z"/>
<path fill="#4469A6" opacity="1.000000" stroke="none" d=" M132.898941,246.869186   C132.523315,247.295288 132.017090,247.491058 131.242661,247.592499   C131.255478,246.550079 131.649826,245.838593 132.898941,246.869186  z"/>
<path fill="#6CAFD8" opacity="1.000000" stroke="none" d=" M158.632629,129.916595   C159.896301,135.728119 163.267654,140.344360 165.874878,145.280228   C168.407516,150.074921 171.223663,154.719864 173.915741,159.804657   C167.385849,158.113556 161.871857,153.967346 155.325500,151.146637   C151.112854,148.886093 147.229813,146.739029 143.171539,144.301941   C139.981064,139.153885 136.964554,134.296646 133.951157,129.437454   C132.648254,127.336472 131.209290,125.293747 131.007446,122.328018   C140.090820,124.570801 149.177780,127.195084 158.632629,129.916595  z"/>
<path fill="#F6FCFC" opacity="1.000000" stroke="none" d=" M91.920410,284.415558   C93.339798,283.032288 94.642830,281.960785 96.232437,280.754150   C100.686646,279.944733 101.238075,282.815247 101.332779,285.783722   C101.554916,292.746002 101.408051,299.714386 101.416061,306.680267   C101.426361,315.636627 101.485825,324.593597 101.389832,333.549286   C101.327744,339.341797 100.397186,340.469879 94.801224,340.345581   C86.550499,340.162445 78.250702,341.351959 69.684296,339.246216   C69.481934,323.591797 72.685097,309.238068 82.399139,296.900146   C85.570969,292.871582 88.671120,288.786560 91.920410,284.415558  z"/>
<path fill="#F6FCFC" opacity="1.000000" stroke="none" d=" M100.344086,395.073486   C80.414925,382.840881 70.310638,364.975098 69.289673,341.522949   C70.848915,339.573212 72.774849,340.041718 74.544121,340.026031   C81.006622,339.968719 87.469894,339.993042 93.932831,340.006439   C101.019264,340.021118 101.368813,340.355774 101.403336,347.702454   C101.470276,361.953796 101.347328,376.205536 101.498268,390.927795   C101.585129,391.707855 101.638840,392.016998 101.674599,392.795166   C101.523834,393.890900 101.224335,394.423706 100.344086,395.073486  z"/>
<path fill="#F6FCFC" opacity="1.000000" stroke="none" d=" M101.014816,394.197998   C100.998604,393.884949 101.004646,393.524994 101.009682,393.345032   C100.978493,376.845215 101.012794,360.525269 101.013374,344.205383   C101.013428,342.679596 100.216881,340.713287 103.128052,340.167053   C106.375275,340.652344 106.301254,343.190094 106.914749,345.133942   C109.726646,354.043457 113.170959,362.509125 119.224632,369.922058   C128.282150,381.013275 139.480408,388.891602 152.512512,394.492157   C154.657593,395.413971 158.086273,395.284912 157.562622,399.397156   C155.373383,400.611755 153.358658,400.398193 151.389923,400.403137   C138.658875,400.435120 125.927734,400.409851 113.196640,400.426605   C111.535622,400.428802 109.886551,400.456360 107.865440,399.626282   C105.779587,398.745453 104.164726,397.970551 102.309357,396.953064   C101.350510,396.153076 101.160393,395.346405 101.014816,394.197998  z"/>
<path fill="#F6FCFC" opacity="1.000000" stroke="none" d=" M159.252487,413.331299   C155.903961,413.701233 152.901428,413.705505 149.450592,413.780579   C146.962143,413.459869 144.921982,413.068390 142.504425,412.554535   C140.601120,411.704987 138.814026,412.327911 136.974670,411.379822   C128.149780,409.513702 120.111824,406.483795 112.075027,402.450684   C111.977371,399.741852 113.934921,400.054138 115.485992,400.046295   C128.928604,399.978119 142.371521,400.003601 155.814377,400.010071   C158.681641,400.011444 160.203415,401.331573 160.289322,404.133423   C160.380051,407.092743 160.905792,410.107819 159.252487,413.331299  z"/>


<path fill="#CCD2DA" opacity="1.000000" stroke="none" d=" M136.804474,411.616394   C138.402252,411.011658 140.186508,410.534149 141.959198,412.112122   C140.371872,412.675018 138.535416,413.831299 136.804474,411.616394  z"/>
<path fill="#DBE0DF" opacity="1.000000" stroke="none" d=" M100.755417,394.065338   C101.798782,394.399445 101.980553,395.213409 102.064484,396.393677   C101.429909,396.401733 100.790970,396.092987 100.041779,395.534760   C100.125099,394.938751 100.318665,394.592255 100.755417,394.065338  z"/>
<path fill="#F1F9FA" opacity="1.000000" stroke="none" d=" M161.534576,413.710327   C161.278107,409.249298 160.259521,404.839630 161.912354,400.152344   C164.655441,398.117401 167.042130,398.808716 169.659607,400.753998   C175.574631,403.028412 181.403214,403.972778 187.624542,405.004883   C188.498383,405.020813 188.949997,405.092255 189.721039,405.313843   C191.112381,405.589783 192.178207,405.755432 193.650726,405.917816   C194.369293,406.355652 194.464630,406.839417 194.021255,407.575256   C189.364532,409.110809 185.030029,410.436981 180.347443,411.919250   C177.596970,412.367889 175.194595,412.660492 172.383179,412.927307   C171.449051,412.954651 170.923370,413.001984 170.137848,413.101257   C167.292206,413.968964 164.631607,413.923706 161.534576,413.710327  z"/>
<path fill="#CCD2DA" opacity="1.000000" stroke="none" d=" M170.129684,413.287842   C170.286133,412.317810 170.834671,411.907471 171.850189,412.702148   C171.443893,413.081635 170.913651,413.261749 170.129684,413.287842  z"/>
<path fill="#404F94" opacity="1.000000" stroke="none" d=" M169.996185,400.646698   C167.608856,400.612457 165.231552,400.182068 162.446655,399.746552   C160.908173,399.152527 159.777313,398.563599 158.318634,398.002777   C141.653351,391.676025 127.028397,383.000061 116.388268,368.514282   C110.452415,360.433044 107.032013,351.407196 104.643799,341.420349   C104.472954,340.492767 104.454361,339.940369 104.233597,339.189850   C101.923859,328.979614 102.628098,319.086670 105.597626,309.371674   C106.447968,306.589722 107.039841,303.576080 109.649063,301.180603   C115.534889,298.841675 117.203300,303.003174 119.244858,306.539856   C126.162918,318.524384 133.002304,330.555084 140.014511,342.484253   C149.954987,359.395050 159.983170,376.254791 170.076965,393.074463   C171.619232,395.644409 170.282333,397.867920 169.996185,400.646698  z"/>


<path fill="#4A7EB4" opacity="1.000000" stroke="none" d=" M189.979950,405.182800   C189.502274,405.422974 188.957993,405.421844 188.226685,405.208038   C188.634888,403.958282 189.261917,404.026978 189.979950,405.182800  z"/>
</svg>
